# Blender 3.4.1
# www.blender.org
mtllib Livro.mtl
o Caderno_Bake
v 0.087792 0.007557 -0.068045
v -0.080640 0.008224 -0.067626
v 0.088124 0.008593 0.060750
v -0.080309 0.008593 0.061168
v -0.080715 -0.004981 -0.067475
v 0.088049 -0.004613 0.060901
v -0.080384 -0.003946 0.061320
v 0.090279 0.008587 0.060746
v 0.090204 -0.004618 0.060898
v 0.090330 0.015685 0.068662
v 0.089983 0.014197 -0.072809
v 0.089943 0.007540 -0.072727
v -0.083395 0.008600 0.061172
v -0.083470 -0.003941 0.061323
v -0.083343 0.016617 0.069087
v -0.083730 0.008217 -0.072302
v -0.083690 0.015128 -0.072383
v 0.087717 -0.005648 -0.067894
v 0.090189 -0.010853 0.068948
v 0.089842 -0.012341 -0.072523
v 0.089868 -0.005665 -0.072576
v -0.083485 -0.009921 0.069373
v -0.083805 -0.004988 -0.072151
v -0.083832 -0.011410 -0.072097
vn 1.0000 -0.0057 -0.0025
vn -0.0025 -0.0114 -0.9999
vn -1.0000 0.0059 0.0025
vn 0.0053 0.9999 -0.0105
vn -0.0016 -0.0115 -0.9999
vn -0.0011 -0.0121 -0.9999
vn -0.0025 -0.0120 -0.9999
vn 1.0000 -0.0051 -0.0024
vn -0.0021 -1.0000 0.0039
vn -0.0053 -0.9999 0.0105
vn -1.0000 0.0049 0.0024
vn 0.0030 1.0000 -0.0053
vn 0.0025 0.0108 0.9999
vn -0.0025 -0.0081 -1.0000
vt 0.967673 0.321360
vt 0.021095 0.487270
vt 0.968830 0.680392
vt 0.203135 0.608001
vt 0.968184 0.022307
vt 0.044914 0.132835
vt 0.970179 0.976910
vt 0.522566 0.488230
vt 0.975526 0.677822
vt 0.538391 0.155449
vt 0.973414 0.022313
vt 0.052317 0.118289
vt 0.975144 0.976934
vt 0.533286 0.478611
vt 0.039702 0.131251
vt 0.047323 0.113291
vt 0.573219 0.419390
vt 0.029924 0.110971
vt 0.573219 0.390049
vt 0.905792 0.420805
vt 0.011933 0.494948
vt 0.016933 0.492922
vt 0.526832 0.494460
vt 0.540310 0.483189
vt 0.576325 0.798212
vt 0.546545 0.499537
vt 0.576325 0.014592
vt 0.199324 0.615758
vt 0.907682 0.798289
vt 0.198627 0.622313
vt 0.974342 0.319128
vt 0.381929 0.022478
vt 0.031478 0.109043
vt 0.601268 0.390053
vt 0.936426 0.390262
vt 0.386950 0.012580
vt 0.386237 0.017510
vt 0.548065 0.497398
vt 0.604375 0.014596
vt 0.544086 0.149762
vt 0.938364 0.013123
vt 0.549237 0.147500
s 0
usemtl Material.001
f 1/1/1 3/5/1 6/11/1 18/31/1
f 2/3/2 1/1/2 18/31/2 5/9/2
f 4/7/3 2/3/3 5/9/3 7/13/3
f 10/17/4 11/20/4 17/29/4 15/25/4
f 6/12/5 3/6/5 8/15/5 9/16/5
f 4/8/6 7/14/6 14/24/6 13/23/6
f 16/28/7 17/30/7 11/21/7 12/22/7
f 12/22/8 11/21/8 10/18/8 19/33/8 20/36/8 21/37/8 9/16/8 8/15/8
f 16/28/9 12/22/9 8/15/9 3/6/9 1/2/9 2/4/9 4/8/9 13/23/9
f 20/35/10 19/34/10 22/39/10 24/41/10
f 15/26/11 17/30/11 16/28/11 13/23/11 14/24/11 23/40/11 24/42/11 22/38/11
f 21/37/12 23/40/12 14/24/12 7/14/12 5/10/12 18/32/12 6/12/12 9/16/12
f 15/27/13 22/39/13 19/34/13 10/19/13
f 20/36/14 24/42/14 23/40/14 21/37/14
