# Blender 3.4.1
# www.blender.org
mtllib Caderno.mtl
o Caderno
v 0.087792 0.006679 -0.068045
v -0.080640 0.007596 -0.067626
v 0.088124 0.008102 0.064210
v -0.080309 0.009019 0.064628
v -0.080715 -0.006451 -0.067475
v 0.088049 -0.005945 0.064361
v -0.080384 -0.005028 0.064780
v -0.082110 -0.004979 0.069316
v 0.090279 0.008095 0.064206
v 0.090204 -0.005952 0.064357
v 0.090215 -0.005904 0.068894
v 0.090330 0.015685 0.068662
v 0.089983 0.014197 -0.072809
v 0.089943 0.006655 -0.072727
v -0.083395 0.009026 0.064632
v -0.083470 -0.005021 0.064783
v -0.083383 0.009075 0.069168
v -0.083343 0.016617 0.069087
v -0.083730 0.007586 -0.072302
v -0.083690 0.015128 -0.072383
v 0.088023 -0.010845 0.068951
v 0.087717 -0.007368 -0.067894
v 0.087691 -0.012317 -0.067840
v 0.090189 -0.010853 0.068948
v 0.087687 -0.012334 -0.072519
v 0.087713 -0.007385 -0.072573
v 0.089842 -0.012341 -0.072523
v 0.089868 -0.007392 -0.072576
v -0.083458 -0.004972 0.069320
v -0.083485 -0.009921 0.069373
v -0.083805 -0.006461 -0.072151
v -0.083832 -0.011410 -0.072097
v -0.564309 0.084087 0.074571
vn 1.0000 -0.0054 -0.0025
vn -0.0025 -0.0108 -0.9999
vn -1.0000 0.0054 0.0025
vn 0.0053 0.9999 -0.0105
vn -0.0016 -0.0108 -0.9999
vn -0.0011 -0.0108 -0.9999
vn -0.0041 0.9999 -0.0105
vn 0.0025 0.0107 0.9999
vn -0.0035 -0.9999 0.0108
vn 1.0000 -0.0053 -0.0024
vn -0.0042 -1.0000 0.0072
vn -1.0000 0.0053 0.0024
vn 0.0025 0.0108 0.9999
vn -0.0032 -0.9999 0.0101
vn 0.0062 1.0000 -0.0067
vn -1.0000 0.0053 0.0008
vn -0.0055 -0.9999 0.0105
vn -1.0000 0.0054 0.0024
vn 1.0000 -0.0054 -0.0024
vn 0.0041 -0.9999 0.0105
vt 0.000059 0.314913
vt 0.251516 0.411862
vt 0.000012 0.685091
vt 0.153369 0.853998
vt 0.000066 0.000013
vt 0.391852 0.170972
vt 0.000066 0.999988
vt 0.289843 0.552423
vt 0.015039 0.685090
vt 0.107224 0.922865
vt 0.015092 0.000012
vt 0.407210 0.119971
vt 0.414108 0.015176
vt 0.015092 0.999987
vt 0.409821 0.030419
vt 0.317193 0.566259
vt 0.313958 0.587280
vt 0.409821 0.015309
vt 0.382095 0.198307
vt 0.409821 0.015176
vt 0.409689 0.073960
vt 0.399935 0.102677
vt 0.409821 0.000066
vt 0.350812 0.139220
vt 0.338976 0.244882
vt 0.390089 0.451412
vt 0.323155 0.432221
vt 0.268126 0.546084
vt 0.310205 0.564545
vt 0.413966 0.030419
vt 0.364950 0.591524
vt 0.250990 0.564697
vt 0.220886 0.539192
vt 0.199223 0.787573
vt 0.245260 0.718947
vt 0.335495 0.147903
vt 0.015086 0.314912
vt 0.191198 0.395422
vt 0.409821 0.030551
vt 0.409821 0.037957
vt 0.000066 0.340375
vt 0.340006 0.128584
vt 0.415026 0.037957
vt 0.066615 0.343764
vt 0.067205 0.334081
vt 0.132532 0.359998
vt 0.130027 0.364967
vt 0.415026 0.030551
vt 0.068960 0.358481
vt 0.110861 0.390096
vt 0.370259 0.593406
vt 0.302995 0.583573
vt 0.413966 0.015309
vt 0.409689 0.620345
vt 0.057414 0.999934
vt 0.068961 0.898679
s 0
usemtl Material.024
f 12/25/4 13/26/4 20/35/4 18/33/4
f 6/12/5 3/6/5 9/19/5 10/22/5
f 4/8/6 7/16/6 16/29/6 15/28/6
f 28/50/7 26/46/7 22/38/7 6/12/7 10/21/7
f 11/24/8 12/25/8 18/33/8 17/32/8 8/17/8 29/51/8 30/54/8 21/36/8 24/42/8
f 19/34/2 20/35/2 13/26/2 14/27/2
f 6/13/9 10/20/9 11/23/9
f 24/42/10 27/49/10 28/50/10 10/21/10 11/24/10
f 19/34/11 14/27/11 9/19/11 3/6/11 1/2/11 2/4/11 4/8/11 15/28/11
f 29/51/12 16/31/12 31/55/12 32/56/12 30/54/12
f 15/28/3 16/29/3 29/52/3 17/32/3
f 8/17/13 17/32/13 29/52/13
f 7/15/14 8/18/14 29/53/14 16/30/14
f 26/47/15 31/55/15 16/31/15 7/16/15 5/10/15 22/38/15
f 25/45/5 26/46/5 28/50/5 27/49/5
f 25/44/2 32/56/2 31/55/2 26/47/2
f 23/40/16 22/39/16 26/48/16 25/43/16
f 30/54/17 32/56/17 25/44/17 23/41/17 21/36/17
f 15/28/18 17/32/18 18/33/18 20/35/18 19/34/18
f 14/27/19 13/26/19 12/25/19 11/24/19 10/22/19 9/19/19
f 23/41/20 25/45/20 27/49/20 24/42/20 21/36/20
usemtl Material.027
f 1/1/1 3/5/1 6/11/1 22/37/1
f 2/3/2 1/1/2 22/37/2 5/9/2
f 4/7/3 2/3/3 5/9/3 7/14/3
