# Blender 3.4.1
# www.blender.org
mtllib Papeis.mtl
o Papeis
v 0.092869 0.015787 -0.116882
v 0.092869 0.015787 0.116883
v -0.092869 -0.015787 -0.116883
v -0.092869 0.015787 -0.116883
v -0.092869 -0.015787 0.116882
v -0.092869 0.015787 0.116882
v 0.092869 -0.013531 -0.116882
v 0.092869 -0.011276 -0.116882
v 0.092869 -0.009021 -0.116882
v 0.092869 -0.006766 -0.116882
v 0.092869 -0.004510 -0.116882
v 0.092869 -0.002255 -0.116882
v 0.092869 -0.000000 -0.116882
v 0.092869 0.002255 -0.116882
v 0.092869 0.004510 -0.116882
v 0.092869 0.006766 -0.116882
v 0.092869 0.009021 -0.116882
v 0.092869 0.011276 -0.116882
v 0.092869 0.013531 -0.116882
v 0.092869 0.013531 0.116883
v 0.092869 0.011276 0.116883
v 0.092869 0.009021 0.116883
v 0.092869 0.006766 0.116883
v 0.092869 0.004510 0.116883
v 0.092869 0.002255 0.116883
v 0.092869 0.000000 0.116883
v 0.092869 -0.002255 0.116883
v 0.092869 -0.004510 0.116883
v 0.092869 -0.006766 0.116883
v 0.092869 -0.009021 0.116883
v 0.092869 -0.011276 0.116883
v 0.092869 -0.013531 0.116883
v -0.092869 0.013531 0.116882
v -0.092869 0.011276 0.116882
v -0.092869 0.009021 0.116882
v -0.092869 0.006766 0.116882
v -0.092869 0.004510 0.116882
v -0.092869 0.002255 0.116882
v -0.092869 0.000000 0.116882
v -0.092869 -0.002255 0.116882
v -0.092869 -0.004510 0.116882
v -0.092869 -0.006766 0.116882
v -0.092869 -0.009021 0.116882
v -0.092869 -0.011276 0.116882
v -0.092869 -0.013531 0.116882
v -0.092869 0.013531 -0.116883
v -0.092869 0.011276 -0.116883
v -0.092869 0.009021 -0.116883
v -0.092869 0.006766 -0.116883
v -0.092869 0.004510 -0.116883
v -0.092869 0.002255 -0.116883
v -0.092869 0.000000 -0.116883
v -0.092869 -0.002255 -0.116883
v -0.092869 -0.004510 -0.116883
v -0.092869 -0.006766 -0.116883
v -0.092869 -0.009021 -0.116883
v -0.092869 -0.011276 -0.116883
v -0.092869 -0.013531 -0.116883
v -0.093799 0.013531 0.116882
v -0.093799 0.011276 0.116882
v -0.093799 0.013531 -0.116883
v -0.093799 0.011276 -0.116883
v -0.093871 0.006766 0.116882
v -0.093871 0.004510 0.116882
v -0.093871 0.006766 -0.116883
v -0.093871 0.004510 -0.116883
v -0.093426 0.011276 0.116882
v -0.093426 0.009021 0.116882
v -0.093426 0.011276 -0.116883
v -0.093426 0.009021 -0.116883
v -0.095251 0.002255 0.116882
v -0.095251 0.000000 0.116882
v -0.095251 0.002255 -0.116883
v -0.095251 0.000000 -0.116883
v -0.093737 -0.004510 0.116882
v -0.093737 -0.006766 0.116882
v -0.093737 -0.004510 -0.116883
v -0.093737 -0.006766 -0.116883
v -0.094088 -0.011276 0.116882
v -0.094088 -0.013531 0.116882
v -0.094088 -0.011276 -0.116883
v -0.094088 -0.013531 -0.116883
v -0.094248 -0.009021 0.116882
v -0.094248 -0.011276 0.116882
v -0.094248 -0.009021 -0.116883
v -0.094248 -0.011276 -0.116883
v 0.094483 -0.002255 -0.116882
v 0.094483 -0.000000 -0.116882
v 0.095277 0.006766 -0.116882
v 0.095277 0.009021 -0.116882
v 0.094087 -0.011276 -0.116882
v 0.094087 -0.009021 -0.116882
v 0.096557 -0.015787 0.116883
v 0.096557 -0.015787 -0.116882
v 0.096557 -0.013531 0.116883
v 0.096557 -0.013531 -0.116882
v 0.092869 -0.000000 -0.119344
v 0.092869 0.002255 -0.119344
v -0.092869 0.002255 -0.119344
v -0.092869 0.000000 -0.119344
v 0.092869 0.004510 -0.118117
v 0.092869 0.006766 -0.118117
v -0.092869 0.006766 -0.118117
v -0.092869 0.004510 -0.118117
v 0.092869 0.009021 0.118326
v -0.092869 0.009021 0.118326
v -0.092869 0.006766 0.118326
v 0.092869 -0.009021 0.119513
v 0.092869 -0.011276 0.119513
v 0.092869 -0.002255 0.122032
v 0.092869 -0.004510 0.122032
v -0.092869 -0.002255 0.122032
v -0.092869 -0.004510 0.122032
v 0.092869 -0.002255 0.122124
v -0.092869 0.000000 0.122124
v -0.092869 -0.002255 0.122124
v 0.095827 0.011276 -0.116882
v 0.095827 0.013531 -0.116882
v 0.095827 0.013531 0.116883
v 0.095827 0.011276 0.116883
v -0.095251 0.002255 -0.119344
v -0.095251 0.000000 -0.119344
v -0.093871 0.006766 -0.118117
v -0.093871 0.004510 -0.118117
v -0.094248 -0.009021 0.119513
v -0.094248 -0.011276 0.119513
v 0.094087 -0.009021 0.119513
v 0.094087 -0.011276 0.119513
v 0.094483 0.000000 0.116883
v 0.094483 -0.002255 0.116883
v 0.094483 0.000000 0.122124
v 0.094483 -0.002255 0.122124
v 0.092869 0.006766 0.118326
v 0.095277 0.009021 0.118326
v 0.095277 0.006766 0.118326
vn 1.0000 -0.0000 -0.0000
vn -0.0000 -0.0000 1.0000
vn -1.0000 -0.0000 -0.0000
vn -0.0000 -0.0000 -1.0000
vn -0.0000 1.0000 -0.0000
vn -0.0000 -1.0000 -0.0000
vt 1.000000 0.333333
vt 0.333333 0.333333
vt 0.333333 1.000000
vt 0.666667 0.333333
vt 0.333333 0.333333
vt 0.333333 0.666667
vt 0.666667 0.000000
vt 0.000000 0.333333
vt 0.666667 0.666667
vt 0.000000 0.666667
vt 0.666667 0.333333
vt 0.000000 1.000000
vt 0.000000 0.000000
vt 0.333333 0.333333
vt 0.666667 0.333333
vt 0.000000 0.333333
vt 0.333333 0.666667
vt 0.000000 0.666667
vt 0.333333 0.023810
vt 1.000000 0.023810
vt 0.333333 0.047619
vt 1.000000 0.047619
vt 0.333333 0.071429
vt 1.000000 0.071429
vt 0.333333 0.095238
vt 1.000000 0.095238
vt 0.333333 0.119048
vt 1.000000 0.119048
vt 0.333333 0.142857
vt 1.000000 0.142857
vt 1.000000 0.166667
vt 0.333333 0.166667
vt 1.000000 0.190476
vt 0.333333 0.190476
vt 1.000000 0.214286
vt 0.333333 0.214286
vt 1.000000 0.238095
vt 0.333333 0.238095
vt 0.333333 0.261905
vt 1.000000 0.261905
vt 1.000000 0.285714
vt 0.333333 0.285714
vt 1.000000 0.309524
vt 0.333333 0.309524
vt 0.333333 0.309524
vt 0.666667 0.309524
vt 0.333333 0.285714
vt 0.666667 0.285714
vt 0.333333 0.261905
vt 0.666667 0.261905
vt 0.666667 0.238095
vt 0.333333 0.238095
vt 0.666667 0.214286
vt 0.333333 0.214286
vt 0.666667 0.190476
vt 0.333333 0.190476
vt 0.666667 0.166667
vt 0.333333 0.166667
vt 0.666667 0.142857
vt 0.333333 0.142857
vt 0.333333 0.119048
vt 0.666667 0.119048
vt 0.333333 0.095238
vt 0.666667 0.095238
vt 0.666667 0.071429
vt 0.333333 0.071429
vt 0.666667 0.047619
vt 0.333333 0.047619
vt 0.333333 0.023810
vt 0.666667 0.023810
vt 0.333333 0.642857
vt 0.000000 0.309524
vt 0.000000 0.285714
vt 0.333333 0.619048
vt 0.000000 0.261905
vt 0.333333 0.595238
vt 0.333333 0.571429
vt 0.000000 0.238095
vt 0.333333 0.547619
vt 0.000000 0.214286
vt 0.333333 0.523810
vt 0.000000 0.190476
vt 0.333333 0.500000
vt 0.000000 0.166667
vt 0.333333 0.476191
vt 0.000000 0.142857
vt 0.000000 0.119048
vt 0.333333 0.452381
vt 0.000000 0.095238
vt 0.333333 0.428571
vt 0.333333 0.404762
vt 0.000000 0.071429
vt 0.000000 0.047619
vt 0.333333 0.380952
vt 0.000000 0.023810
vt 0.333333 0.357143
vt 0.000000 0.642857
vt 0.666667 0.309524
vt 0.000000 0.619048
vt 0.666667 0.285714
vt 0.000000 0.595238
vt 0.666667 0.261905
vt 0.000000 0.571429
vt 0.666667 0.238095
vt 0.666667 0.214286
vt 0.000000 0.547619
vt 0.666667 0.190476
vt 0.000000 0.523810
vt 0.666667 0.166667
vt 0.000000 0.500000
vt 0.666667 0.142857
vt 0.000000 0.476191
vt 0.666667 0.119048
vt 0.000000 0.452381
vt 0.666667 0.095238
vt 0.000000 0.428571
vt 0.666667 0.071429
vt 0.000000 0.404762
vt 0.666667 0.047619
vt 0.000000 0.380952
vt 0.666667 0.023810
vt 0.000000 0.357143
vt 0.000000 0.309524
vt 0.333333 0.642857
vt 0.000000 0.285714
vt 0.333333 0.619048
vt 0.000000 0.642857
vt 0.666667 0.309524
vt 0.000000 0.619048
vt 0.666667 0.285714
vt 0.333333 0.571429
vt 0.000000 0.238095
vt 0.333333 0.547619
vt 0.000000 0.214286
vt 0.000000 0.571429
vt 0.000000 0.547619
vt 0.000000 0.285714
vt 0.333333 0.619048
vt 0.000000 0.261905
vt 0.333333 0.595238
vt 0.666667 0.285714
vt 0.000000 0.619048
vt 0.666667 0.261905
vt 0.000000 0.595238
vt 0.333333 0.523810
vt 0.000000 0.190476
vt 0.333333 0.500000
vt 0.000000 0.166667
vt 0.000000 0.523810
vt 0.000000 0.500000
vt 0.000000 0.119048
vt 0.333333 0.452381
vt 0.000000 0.095238
vt 0.333333 0.428571
vt 0.666667 0.119048
vt 0.000000 0.452381
vt 0.666667 0.095238
vt 0.000000 0.428571
vt 0.000000 0.047619
vt 0.333333 0.380952
vt 0.000000 0.023810
vt 0.333333 0.357143
vt 0.666667 0.047619
vt 0.000000 0.380952
vt 0.666667 0.023810
vt 0.000000 0.357143
vt 0.333333 0.404762
vt 0.000000 0.071429
vt 0.333333 0.380952
vt 0.000000 0.047619
vt 0.666667 0.071429
vt 0.000000 0.404762
vt 0.666667 0.047619
vt 0.000000 0.380952
vt 0.333333 0.142857
vt 1.000000 0.142857
vt 0.333333 0.166667
vt 1.000000 0.166667
vt 1.000000 0.238095
vt 0.333333 0.238095
vt 0.333333 0.261905
vt 1.000000 0.261905
vt 0.333333 0.047619
vt 1.000000 0.047619
vt 0.333333 0.071429
vt 1.000000 0.071429
vt 0.333333 0.000000
vt 0.666667 0.000000
vt 0.333333 0.333333
vt 0.333333 0.000000
vt 1.000000 0.000000
vt 0.333333 0.666667
vt 0.333333 0.023810
vt 0.666667 0.023810
vt 0.333333 0.023810
vt 1.000000 0.023810
vt 1.000000 0.166667
vt 0.333333 0.166667
vt 1.000000 0.190476
vt 0.333333 0.190476
vt 0.666667 0.190476
vt 0.000000 0.523810
vt 0.666667 0.166667
vt 0.000000 0.500000
vt 1.000000 0.214286
vt 0.333333 0.214286
vt 1.000000 0.238095
vt 0.333333 0.238095
vt 0.666667 0.238095
vt 0.000000 0.571429
vt 0.666667 0.214286
vt 0.000000 0.547619
vt 0.333333 0.261905
vt 0.666667 0.261905
vt 0.333333 0.595238
vt 0.000000 0.261905
vt 0.333333 0.571429
vt 0.000000 0.238095
vt 0.666667 0.071429
vt 0.333333 0.071429
vt 0.666667 0.047619
vt 0.333333 0.047619
vt 0.333333 0.142857
vt 0.666667 0.142857
vt 0.333333 0.119048
vt 0.666667 0.119048
vt 0.333333 0.476191
vt 0.000000 0.142857
vt 0.333333 0.452381
vt 0.000000 0.119048
vt 0.333333 0.142857
vt 0.333333 0.500000
vt 0.000000 0.166667
vt 0.333333 0.476191
vt 0.000000 0.142857
vt 1.000000 0.285714
vt 0.333333 0.285714
vt 1.000000 0.309524
vt 0.333333 0.309524
vt 0.333333 0.309524
vt 0.666667 0.309524
vt 0.333333 0.285714
vt 0.666667 0.285714
vt 0.666667 0.190476
vt 0.000000 0.523810
vt 0.666667 0.166667
vt 0.000000 0.500000
vt 0.666667 0.238095
vt 0.000000 0.571429
vt 0.666667 0.214286
vt 0.000000 0.547619
vt 0.000000 0.071429
vt 0.000000 0.047619
vt 0.666667 0.071429
vt 0.333333 0.071429
vt 0.666667 0.047619
vt 0.333333 0.047619
vt 0.666667 0.166667
vt 0.333333 0.166667
vt 0.666667 0.142857
vt 0.333333 0.142857
vt 0.333333 0.166667
vt 0.333333 0.142857
vt 0.666667 0.238095
vt 0.333333 0.238095
vt 0.333333 0.261905
vt 0.666667 0.261905
vt 0.666667 0.238095
vt 0.333333 0.238095
s 0
usemtl Material.012
f 19/43/1 1/1/1 2/4/1 20/46/1
f 20/45/2 2/5/2 6/16/2 33/72/2
f 33/71/3 6/17/3 4/10/3 46/97/3
f 46/98/4 4/11/4 1/2/4 19/44/4
f 5/13/2 93/187/2 95/193/2 32/69/2 45/95/2
f 6/18/5 2/6/5 1/3/5 4/12/5
f 65/135/3 123/249/3 124/251/3 66/136/3 64/133/3 63/131/3
f 7/19/4 96/195/4 94/190/4 3/7/4 58/121/4
f 56/117/4 55/115/4 10/25/4 9/23/4
f 57/119/4 86/173/4 85/171/4 56/117/4 9/23/4 92/185/4 91/183/4 8/21/4
f 54/113/4 53/111/4 12/29/4 11/27/4
f 58/121/4 82/165/4 81/163/4 57/119/4 8/21/4 7/19/4
f 13/32/4 88/177/4 87/175/4 12/29/4 53/111/4 52/109/4
f 51/107/4 50/105/4 15/36/4 14/34/4
f 14/33/1 25/55/1 26/57/1 13/31/1 97/197/1 98/199/1
f 16/37/1 23/51/1 24/53/1 15/35/1 101/205/1 102/207/1
f 55/115/4 78/157/4 77/155/4 54/113/4 11/27/4 10/25/4
f 48/102/4 70/143/4 69/141/4 47/100/4 18/42/4 17/39/4
f 5/14/3 45/96/3 58/122/3 3/8/3
f 44/94/5 57/120/5 81/164/5 79/160/5
f 43/91/3 42/90/3 55/116/3 56/118/3
f 41/88/3 113/229/3 112/227/3 40/85/3 53/112/3 54/114/3
f 38/81/5 51/108/5 73/149/5 71/145/5
f 38/81/3 37/79/3 50/106/3 51/108/3
f 40/85/3 116/234/3 115/232/3 39/83/3 52/110/3 53/112/3
f 41/87/2 75/151/2 76/153/2 42/89/2 29/63/2 28/61/2
f 33/71/5 46/97/5 61/127/5 59/124/5
f 91/184/6 128/256/6 109/221/6 31/67/6 8/22/6
f 108/220/2 125/252/2 126/253/2 109/222/2
f 109/222/6 126/253/6 84/170/6 44/93/6 31/68/6
f 30/66/2 29/63/2 42/89/2 43/92/2
f 44/93/2 79/159/2 80/161/2 45/95/2 32/69/2 31/68/2
f 41/87/6 28/61/6 111/225/6 113/230/6
f 21/47/2 120/242/2 119/240/2 20/45/2 33/72/2 59/123/2 60/125/2 34/73/2
f 25/56/2 24/54/2 37/80/2 38/82/2
f 22/49/5 35/75/5 106/216/5 105/213/5
f 36/77/3 107/217/3 106/215/3 35/76/3 48/101/3 49/103/3
f 34/73/2 67/137/2 68/139/2 35/75/2 22/49/2 21/47/2
f 7/20/1 8/22/1 31/67/1 32/70/1
f 9/24/1 10/26/1 29/64/1 30/65/1
f 10/26/1 11/28/1 28/62/1 29/64/1
f 92/186/1 127/254/1 128/256/1 91/184/1
f 27/59/6 12/30/6 87/176/6 130/260/6
f 14/33/1 15/35/1 24/53/1 25/55/1
f 90/182/1 134/267/1 135/268/1 89/179/1
f 17/40/1 18/41/1 21/48/1 22/50/1
f 60/126/3 59/124/3 61/127/3 62/129/3
f 47/99/6 34/74/6 60/126/6 62/129/6
f 73/149/3 121/245/3 122/247/3 74/150/3 72/147/3 71/145/3
f 36/77/5 49/103/5 65/135/5 63/131/5
f 50/106/6 37/79/6 64/133/6 66/136/6
f 68/140/3 67/138/3 69/142/3 70/144/3
f 48/101/6 35/76/6 68/140/6 70/144/6
f 34/74/5 47/99/5 69/142/5 67/138/5
f 52/110/6 39/83/6 72/147/6 74/150/6
f 76/154/3 75/152/3 77/156/3 78/158/3
f 55/116/6 42/90/6 76/154/6 78/158/6
f 41/88/5 54/114/5 77/156/5 75/152/5
f 80/162/3 79/160/3 81/164/3 82/166/3
f 58/122/6 45/96/6 80/162/6 82/166/6
f 84/169/3 83/167/3 85/172/3 86/174/3
f 44/93/2 43/92/2 83/168/2 84/170/2
f 57/120/6 44/94/6 84/169/6 86/174/6
f 43/91/5 56/118/5 85/172/5 83/167/5
f 87/176/1 88/178/1 129/258/1 130/260/1
f 13/31/5 26/57/5 129/258/5 88/178/5
f 89/179/6 135/268/6 133/264/6 23/51/6 16/37/6
f 22/49/3 23/52/3 133/265/3 105/213/3
f 114/231/2 132/263/2 131/262/2 115/233/2 116/235/2
f 30/65/5 108/219/5 127/254/5 92/186/5 9/24/5
f 115/233/5 131/262/5 129/259/5 26/58/5 39/84/5
f 94/191/1 96/196/1 95/194/1 93/188/1
f 7/20/5 32/70/5 95/194/5 96/196/5
f 100/203/4 99/201/4 98/200/4 97/198/4
f 13/32/6 52/109/6 100/203/6 97/198/6
f 52/109/3 51/107/3 99/201/3 100/203/3
f 51/107/5 14/34/5 98/200/5 99/201/5
f 104/211/4 103/209/4 102/208/4 101/206/4
f 15/36/6 50/105/6 104/211/6 101/206/6
f 50/105/3 49/104/3 103/209/3 104/211/3
f 49/104/5 16/38/5 102/208/5 103/209/5
f 133/265/2 105/213/2 106/216/2 107/218/2
f 36/78/6 23/52/6 133/265/6 107/218/6
f 43/92/5 83/168/5 125/252/5 108/220/5 30/66/5
f 31/68/1 30/66/1 108/220/1 109/222/1
f 111/225/2 110/223/2 112/228/2 113/230/2
f 27/60/5 40/86/5 112/228/5 110/223/5
f 27/59/1 110/224/1 111/226/1 28/62/1 11/28/1 12/30/1
f 40/86/6 27/60/6 114/231/6 116/235/6
f 117/236/1 118/238/1 119/241/1 120/243/1
f 19/43/5 20/46/5 119/241/5 118/238/5
f 21/48/6 18/41/6 117/236/6 120/243/6
f 99/201/4 100/203/4 122/246/4 121/244/4
f 73/149/5 51/108/5 99/202/5 121/245/5
f 52/110/6 74/150/6 122/247/6 100/204/6
f 103/209/4 104/211/4 124/250/4 123/248/4
f 65/135/5 49/103/5 103/210/5 123/249/5
f 50/106/6 66/136/6 124/251/6 104/212/6
f 83/168/3 84/170/3 126/253/3 125/252/3
f 108/220/2 109/222/2 128/257/2 127/255/2
f 130/261/1 129/259/1 131/262/1 132/263/1
f 27/60/4 26/58/4 129/259/4 130/261/4
f 114/231/6 27/60/6 130/261/6 132/263/6
f 105/213/2 133/265/2 135/269/2 134/266/2
f 17/39/4 90/181/4 89/180/4 16/38/4 49/104/4 48/102/4
f 22/50/5 105/214/5 134/267/5 90/182/5 17/40/5
f 3/9/6 94/192/6 93/189/6 5/15/6
f 24/54/2 23/52/2 36/78/2 63/132/2 64/134/2 37/80/2
f 38/82/2 71/146/2 72/148/2 39/84/2 26/58/2 25/56/2
f 47/100/4 62/130/4 61/128/4 46/98/4 19/44/4 118/239/4 117/237/4 18/42/4
