# Blender 3.4.1
# www.blender.org
mtllib Wood_LetterBlock.mtl
o Wood_LetterBlock
v 0.025000 0.018750 -0.018750
v 0.025000 -0.018750 -0.018750
v 0.025000 0.018750 0.018750
v 0.025000 -0.018750 0.018750
v -0.025000 0.018750 -0.018750
v -0.025000 -0.018750 -0.018750
v -0.025000 0.018750 0.018750
v -0.025000 -0.018750 0.018750
v -0.018750 -0.018750 -0.025000
v -0.018750 -0.018750 0.025000
v 0.018750 0.018750 -0.025000
v 0.018750 -0.018750 -0.025000
v -0.018750 0.018750 0.025000
v 0.018750 0.018750 0.025000
v 0.018750 -0.018750 0.025000
v -0.018750 0.018750 -0.025000
v -0.025000 -0.018750 -0.018750
v -0.025000 -0.018750 0.018750
v 0.025000 0.018750 -0.018750
v 0.025000 -0.018750 -0.018750
v -0.025000 0.018750 0.018750
v 0.025000 0.018750 0.018750
v 0.025000 -0.018750 0.018750
v -0.025000 0.018750 -0.018750
v 0.018750 -0.025000 -0.018750
v -0.018750 -0.025000 -0.018750
v 0.018750 0.025000 -0.018750
v -0.018750 -0.025000 0.018750
v -0.018750 0.025000 0.018750
v 0.018750 0.025000 0.018750
v 0.018750 -0.025000 0.018750
v -0.018750 0.025000 -0.018750
v -0.025000 -0.025000 -0.025000
v -0.025000 -0.025000 0.025000
v 0.025000 -0.025000 -0.025000
v 0.025000 0.025000 0.025000
v -0.025000 0.025000 0.025000
v 0.025000 0.025000 -0.025000
v 0.025000 -0.025000 0.025000
v -0.025000 0.025000 -0.025000
v -0.018750 -0.023750 -0.018750
v -0.018750 -0.023750 0.018750
v 0.018750 -0.023750 -0.018750
v 0.018750 0.023750 0.018750
v -0.018750 0.023750 0.018750
v 0.018750 0.023750 -0.018750
v 0.018750 -0.023750 0.018750
v -0.018750 0.023750 -0.018750
v -0.023750 -0.018750 -0.018750
v -0.023750 -0.018750 0.018750
v 0.023750 0.018750 -0.018750
v 0.023750 -0.018750 -0.018750
v -0.023750 0.018750 0.018750
v 0.023750 0.018750 0.018750
v 0.023750 -0.018750 0.018750
v -0.023750 0.018750 -0.018750
v 0.018750 -0.018750 -0.023750
v -0.018750 -0.018750 -0.023750
v 0.018750 0.018750 -0.023750
v -0.018750 -0.018750 0.023750
v -0.018750 0.018750 0.023750
v 0.018750 0.018750 0.023750
v 0.018750 -0.018750 0.023750
v -0.018750 0.018750 -0.023750
vn -0.0000 -0.0000 -1.0000
vn 1.0000 -0.0000 -0.0000
vn -0.0000 -0.0000 1.0000
vn -0.0000 -0.0000 -0.0000
vn -0.0000 1.0000 -0.0000
vn -1.0000 -0.0000 -0.0000
vn -0.0000 -1.0000 -0.0000
vt 0.439616 0.297368
vt 0.541281 0.123417
vt 0.341033 0.307863
vt 0.275890 0.217682
vt 0.435136 0.449371
vt 0.517584 0.576295
vt 0.340388 0.453126
vt 0.253935 0.586291
vt 0.564579 0.519803
vt 0.207884 0.534442
vt 0.454492 0.325750
vt 0.542187 0.224668
vt 0.319939 0.432209
vt 0.320384 0.339482
vt 0.227659 0.268237
vt 0.458391 0.425428
vt 0.517039 0.575734
vt 0.254743 0.586244
vt 0.442274 0.297550
vt 0.538446 0.127125
vt 0.339484 0.452144
vt 0.345540 0.306790
vt 0.271399 0.215231
vt 0.435814 0.450698
vt 0.700072 0.024745
vt 0.709982 0.726752
vt 0.430158 0.333253
vt 0.032682 0.737493
vt 0.348754 0.420528
vt 0.346880 0.341298
vt 0.099540 0.050187
vt 0.430932 0.416059
vt 0.608392 0.627495
vt 0.146769 0.640882
vt 0.573515 0.119183
vt 0.334016 0.327890
vt 0.333539 0.435892
vt 0.445930 0.316290
vt 0.196022 0.171770
vt 0.442367 0.431894
vt 0.729194 0.748600
vt 0.745614 0.228304
vt 0.008210 0.755277
vt 0.965708 0.228304
vt 0.729194 0.008210
vt 0.745614 0.008210
vt 0.348829 0.342486
vt 0.965708 0.937845
vt 0.351092 0.416046
vt 0.965708 0.717751
vt 0.427090 0.339250
vt 0.745614 0.937845
vt 0.083192 0.022913
vt 0.965708 0.008210
vt 0.429860 0.413189
vt 0.745614 0.717751
vt 0.503238 0.566535
vt 0.745614 0.244723
vt 0.269218 0.575487
vt 0.965708 0.244723
vt 0.441038 0.293446
vt 0.244723 0.771696
vt 0.519290 0.147724
vt 0.244723 0.991790
vt 0.341895 0.455307
vt 0.965708 0.464817
vt 0.352118 0.301633
vt 0.464817 0.771696
vt 0.280146 0.218412
vt 0.464817 0.991790
vt 0.433724 0.456436
vt 0.745614 0.464817
vt 0.541885 0.240760
vt 0.745614 0.481237
vt 0.555177 0.501817
vt 0.965708 0.481237
vt 0.453903 0.329437
vt 0.745614 0.701331
vt 0.218065 0.516286
vt 0.228304 0.991790
vt 0.315650 0.432921
vt 0.228304 0.771696
vt 0.319321 0.347309
vt 0.008210 0.771696
vt 0.232868 0.277716
vt 0.008210 0.991790
vt 0.459499 0.422915
vt 0.965708 0.701331
s 0
usemtl Wood_LetterBlock
f 31/31/1 28/28/1 42/43/1 47/53/1
f 9/9/2 16/16/2 64/87/2 58/75/2
f 5/5/3 6/6/3 17/17/3 24/24/3
f 27/27/3 32/32/3 48/55/3 46/51/3
f 7/7/4 5/5/4 24/24/4 21/21/4
f 10/10/5 15/15/5 63/85/5 60/79/5
f 8/8/6 6/6/6 33/33/6 34/34/6
f 1/1/2 2/2/2 35/35/2 38/38/2
f 7/7/6 8/8/6 34/34/6 37/37/6
f 4/4/2 3/3/2 36/36/2 39/39/2
f 6/6/6 5/5/6 40/40/6 33/33/6
f 3/3/2 1/1/2 38/38/2 36/36/2
f 5/5/6 7/7/6 37/37/6 40/40/6
f 2/2/2 4/4/2 39/39/2 35/35/2
f 24/24/3 17/17/3 49/57/3 56/71/3
f 21/21/7 24/24/7 56/71/7 53/65/7
f 8/8/3 7/7/3 21/21/3 18/18/3
f 6/6/4 8/8/4 18/18/4 17/17/4
f 4/4/4 2/2/4 20/20/4 23/23/4
f 1/1/4 3/3/4 22/22/4 19/19/4
f 3/3/3 4/4/3 23/23/3 22/22/3
f 2/2/3 1/1/3 19/19/3 20/20/3
f 9/9/1 12/12/1 35/35/1 33/33/1
f 12/12/1 11/11/1 38/38/1 35/35/1
f 10/10/3 13/13/3 37/37/3 34/34/3
f 14/14/3 15/15/3 39/39/3 36/36/3
f 16/16/1 9/9/1 33/33/1 40/40/1
f 13/13/3 14/14/3 36/36/3 37/37/3
f 15/15/3 10/10/3 34/34/3 39/39/3
f 11/11/1 16/16/1 40/40/1 38/38/1
f 26/26/7 28/28/7 34/34/7 33/33/7
f 25/25/7 26/26/7 33/33/7 35/35/7
f 30/30/5 29/29/5 37/37/5 36/36/5
f 27/27/5 30/30/5 36/36/5 38/38/5
f 28/28/7 31/31/7 39/39/7 34/34/7
f 29/29/5 32/32/5 40/40/5 37/37/5
f 32/32/5 27/27/5 38/38/5 40/40/5
f 31/31/7 25/25/7 35/35/7 39/39/7
f 29/29/1 30/30/1 44/47/1 45/49/1
f 28/28/2 26/26/2 41/41/2 42/43/2
f 25/25/6 31/31/6 47/53/6 43/45/6
f 32/32/2 29/29/2 45/49/2 48/55/2
f 30/30/6 27/27/6 46/51/6 44/47/6
f 26/26/3 25/25/3 43/45/3 41/41/3
f 18/18/1 21/21/1 53/65/1 50/59/1
f 17/17/5 18/18/5 50/59/5 49/57/5
f 23/23/5 20/20/5 52/63/5 55/69/5
f 19/19/7 22/22/7 54/67/7 51/61/7
f 22/22/1 23/23/1 55/69/1 54/67/1
f 20/20/3 19/19/3 51/61/3 52/63/3
f 13/13/2 10/10/2 60/79/2 61/81/2
f 12/12/5 9/9/5 58/75/5 57/73/5
f 16/16/7 11/11/7 59/77/7 64/87/7
f 14/14/7 13/13/7 61/81/7 62/83/7
f 15/15/6 14/14/6 62/83/6 63/85/6
f 11/11/6 12/12/6 57/73/6 59/77/6
f 46/52/5 48/56/5 45/50/5 44/48/5
f 41/42/7 43/46/7 47/54/7 42/44/7
f 50/60/6 53/66/6 56/72/6 49/58/6
f 52/64/2 51/62/2 54/68/2 55/70/2
f 63/86/3 62/84/3 61/82/3 60/80/3
f 58/76/1 64/88/1 59/78/1 57/74/1
