# Blender 3.4.1
# www.blender.org
mtllib Wood_Ramp.mtl
o Wood_Ramp
v 0.010000 0.013333 -0.013333
v 0.010000 -0.006667 -0.013333
v 0.010000 -0.006667 0.026667
v -0.010000 0.013333 -0.013333
v -0.010000 -0.006667 -0.013333
v -0.010000 -0.006667 0.026667
vn -1.0000 -0.0000 -0.0000
vn -0.0000 -1.0000 -0.0000
vn -0.0000 -0.0000 -1.0000
vn -0.0000 0.8944 0.4472
vn 1.0000 -0.0000 -0.0000
vt 0.668172 0.004516
vt 0.004516 0.331828
vt 0.331828 0.331828
vt 0.668172 0.331828
vt 0.331828 0.004516
vt 0.004516 0.659140
vt 0.995484 0.004516
vt 0.659140 0.331828
vt 0.331828 0.659140
vt 0.331828 0.986451
vt 0.659140 0.004516
vt 0.995484 0.331828
s 0
usemtl Wood_Ramp
f 6/10/1 4/6/1 5/9/1
f 5/8/2 2/3/2 3/5/2 6/11/2
f 5/9/3 4/6/3 1/2/3 2/3/3
f 1/1/4 4/7/4 6/12/4 3/4/4
f 2/3/5 1/2/5 3/5/5
