# Blender 3.4.1
# www.blender.org
mtllib Wood_Bricks.mtl
o Wood_Bricks
v 0.010000 0.020000 -0.010000
v 0.010000 -0.020000 -0.010000
v 0.010000 0.020000 0.010000
v 0.010000 -0.020000 0.010000
v -0.010000 0.020000 -0.010000
v -0.010000 -0.020000 -0.010000
v -0.010000 0.020000 0.010000
v -0.010000 -0.020000 0.010000
vn -1.0000 -0.0000 -0.0000
vn 1.0000 -0.0000 -0.0000
vn -0.0000 1.0000 -0.0000
vn -0.0000 -0.0000 1.0000
vn -0.0000 -1.0000 -0.0000
vn -0.0000 -0.0000 -1.0000
vt 0.664690 0.664690
vt 0.668643 0.001976
vt 0.001976 0.998024
vt 0.664690 0.335310
vt 0.664690 0.001976
vt 0.001976 0.668643
vt 0.335310 0.664690
vt 0.668643 0.331357
vt 0.331357 0.331357
vt 0.335310 0.335310
vt 0.331357 0.001976
vt 0.664690 0.331357
vt 0.001976 0.664690
vt 0.998024 0.001976
vt 0.331357 0.998024
vt 0.001976 0.335310
vt 0.335310 0.001976
vt 0.331357 0.668643
vt 0.331357 0.664690
vt 0.998024 0.331357
vt 0.001976 0.331357
vt 0.331357 0.335310
vt 0.001976 0.001976
vt 0.335310 0.331357
s 0
usemtl Wood_Bricks
f 8/22/1 7/19/1 5/13/1 6/16/1
f 2/4/2 1/1/2 3/7/2 4/10/2
f 1/2/3 5/14/3 7/20/3 3/8/3
f 4/11/4 3/9/4 7/21/4 8/23/4
f 6/17/5 2/5/5 4/12/5 8/24/5
f 6/18/6 5/15/6 1/3/6 2/6/6
