# Blender 3.5.0
# www.blender.org
mtllib Wood_Brick_Tower.mtl
o Wood_Tower
v 0.000000 -0.040000 -0.020000
v 0.000000 0.040000 -0.020000
v 0.017500 -0.040000 -0.010000
v 0.017500 0.040000 -0.010000
v 0.017500 -0.040000 0.010000
v 0.017500 0.040000 0.010000
v 0.000000 -0.040000 0.020000
v 0.000000 0.040000 0.020000
v -0.017500 -0.040000 0.010000
v -0.017500 0.040000 0.010000
v -0.017500 -0.040000 -0.010000
v -0.017500 0.040000 -0.010000
vn 0.4961 -0.0000 -0.8682
vn 1.0000 -0.0000 -0.0000
vn 0.4961 -0.0000 0.8682
vn -0.4961 -0.0000 0.8682
vn -0.0000 1.0000 -0.0000
vn -1.0000 -0.0000 -0.0000
vn -0.4961 -0.0000 -0.8682
vn -0.0000 -1.0000 -0.0000
vt 0.800185 0.436663
vt 0.483998 0.436663
vt 0.870958 0.295233
vt 0.800185 0.749036
vt 0.358960 0.392850
vt 0.483998 0.749036
vt 0.643998 0.436663
vt 0.320185 0.436663
vt 0.701881 0.392850
vt 0.643998 0.749036
vt 0.320185 0.749036
vt 0.528037 0.295233
vt 0.163998 0.436663
vt 0.480185 0.436663
vt 0.532804 0.295233
vt 0.163998 0.749036
vt 0.480185 0.749036
vt 0.528037 0.100000
vt 0.323998 0.436663
vt 0.160185 0.436663
vt 0.532804 0.100000
vt 0.323998 0.749036
vt 0.160185 0.749036
vt 0.358960 0.002383
vt 0.003998 0.436663
vt 0.959597 0.436682
vt 0.701881 0.002383
vt 0.003998 0.749036
vt 0.189883 0.100000
vt 0.959597 0.749055
vt 0.803411 0.436682
vt 0.640185 0.436663
vt 0.870958 0.100000
vt 0.189883 0.295233
vt 0.803411 0.749055
vt 0.640185 0.749036
s 1
usemtl Wood_Tower_Bricks
f 1/1/1 2/4/1 4/10/1 3/7/1
f 3/8/2 4/11/2 6/16/2 5/13/2
f 5/14/3 6/17/3 8/22/3 7/19/3
f 7/20/4 8/23/4 10/28/4 9/25/4
f 9/26/6 10/30/6 12/35/6 11/31/6
f 11/32/7 12/36/7 2/6/7 1/2/7
usemtl Wood_Tower_Raw
f 4/12/5 2/5/5 12/34/5 10/29/5 8/24/5 6/18/5
f 1/3/8 3/9/8 5/15/8 7/21/8 9/27/8 11/33/8
