# Blender 3.4.1
# www.blender.org
mtllib Brinquedo Pixel.mtl
o Cube.006
v 0.113039 0.075849 0.022541
v 0.111676 0.076774 0.022541
v 0.111676 -0.059995 0.022541
v 0.113039 -0.059070 0.022541
v -0.111676 0.076774 0.022541
v -0.113039 0.075849 0.022541
v -0.113039 -0.059070 0.022541
v -0.111676 -0.059995 0.022541
v -0.111676 -0.059995 0.009855
v -0.113039 -0.059070 0.009855
v 0.111676 0.076774 0.009855
v 0.113039 0.075849 0.009855
v -0.113039 0.075849 0.009855
v -0.111676 0.076774 0.009855
v 0.113039 -0.059070 0.009855
v 0.111676 -0.059995 0.009855
v 0.119653 0.089854 -0.004915
v 0.126509 0.099118 0.000305
v 0.123178 0.095633 -0.003276
v 0.132297 0.081266 -0.004915
v 0.145937 0.085922 0.000305
v 0.140806 0.083660 -0.003276
v 0.132297 -0.081266 -0.004915
v 0.145937 -0.085922 0.000305
v 0.140806 -0.083660 -0.003276
v 0.119653 -0.089854 -0.004915
v 0.126509 -0.099118 0.000305
v 0.123178 -0.095633 -0.003276
v -0.132297 0.081266 -0.004915
v -0.145937 0.085922 0.000305
v -0.140806 0.083660 -0.003276
v -0.119653 0.089854 -0.004915
v -0.126509 0.099118 0.000305
v -0.123178 0.095633 -0.003276
v -0.119653 -0.089854 -0.004915
v -0.126509 -0.099118 0.000305
v -0.123178 -0.095633 -0.003276
v -0.132297 -0.081266 -0.004915
v -0.145937 -0.085922 0.000305
v -0.140806 -0.083660 -0.003276
v -0.126509 -0.099118 0.017321
v -0.122867 -0.088575 0.021655
v -0.123941 -0.095115 0.020903
v -0.134638 -0.078313 0.021655
v -0.145937 -0.085922 0.017321
v -0.141374 -0.082765 0.020903
v 0.126509 0.099118 0.017321
v 0.120528 0.089962 0.021655
v 0.123334 0.095889 0.020903
v 0.134605 0.080836 0.021655
v 0.145937 0.085922 0.017321
v 0.141284 0.083795 0.020903
v -0.145937 0.085922 0.017321
v -0.133260 0.080560 0.021655
v -0.141064 0.083733 0.020903
v -0.120033 0.089746 0.021655
v -0.126509 0.099118 0.017321
v -0.123304 0.095840 0.020903
v 0.145937 -0.085922 0.017321
v 0.135227 -0.078502 0.021655
v 0.141424 -0.082808 0.020903
v 0.121074 -0.088483 0.021655
v 0.126509 -0.099118 0.017321
v 0.123456 -0.095094 0.020903
v -0.084445 -0.069721 0.021083
v -0.083095 -0.074757 0.021083
v -0.093166 -0.084828 0.021083
v -0.101888 -0.069721 0.021083
v -0.093166 -0.064686 0.028969
v -0.090094 -0.068247 0.030504
v -0.088131 -0.066035 0.028969
v -0.084445 -0.069721 0.028969
v -0.083095 -0.074757 0.028969
v -0.084445 -0.079792 0.028969
v -0.098872 -0.078633 0.030504
v -0.096239 -0.068247 0.030504
v -0.093166 -0.064686 0.021083
v -0.088131 -0.066035 0.021083
v -0.084445 -0.079792 0.021083
v -0.088131 -0.083478 0.021083
v -0.098202 -0.083478 0.021083
v -0.101888 -0.079792 0.021083
v -0.103237 -0.074757 0.021083
v -0.098202 -0.066035 0.021083
v -0.093166 -0.067424 0.030504
v -0.087461 -0.070880 0.030504
v -0.086422 -0.074757 0.030504
v -0.087461 -0.078633 0.030504
v -0.090094 -0.081266 0.030504
v -0.088131 -0.083478 0.028969
v -0.093166 -0.082090 0.030504
v -0.093166 -0.084828 0.028969
v -0.096239 -0.081266 0.030504
v -0.098202 -0.083478 0.028969
v -0.101888 -0.079792 0.028969
v -0.099911 -0.074757 0.030504
v -0.103237 -0.074757 0.028969
v -0.098872 -0.070880 0.030504
v -0.101888 -0.069721 0.028969
v -0.098202 -0.066035 0.028969
v 0.093253 -0.064686 0.021083
v 0.098288 -0.066035 0.021083
v 0.101974 -0.069721 0.021083
v 0.103323 -0.074757 0.021083
v 0.101974 -0.079792 0.021083
v 0.098288 -0.083478 0.021083
v 0.093253 -0.084828 0.021083
v 0.088217 -0.083478 0.021083
v 0.084531 -0.079792 0.021083
v 0.083182 -0.074757 0.021083
v 0.084531 -0.069721 0.021083
v 0.088217 -0.066035 0.021083
v 0.093253 -0.067424 0.030504
v 0.093253 -0.064686 0.028969
v 0.096325 -0.068247 0.030504
v 0.098288 -0.066035 0.028969
v 0.098958 -0.070880 0.030504
v 0.101974 -0.069721 0.028969
v 0.099997 -0.074757 0.030504
v 0.103323 -0.074757 0.028969
v 0.098958 -0.078633 0.030504
v 0.101974 -0.079792 0.028969
v 0.096325 -0.081266 0.030504
v 0.098288 -0.083478 0.028969
v 0.093253 -0.082090 0.030504
v 0.093253 -0.084828 0.028969
v 0.090180 -0.081266 0.030504
v 0.088217 -0.083478 0.028969
v 0.087547 -0.078633 0.030504
v 0.084531 -0.079792 0.028969
v 0.086508 -0.074757 0.030504
v 0.083182 -0.074757 0.028969
v 0.087547 -0.070880 0.030504
v 0.084531 -0.069721 0.028969
v 0.090180 -0.068247 0.030504
v 0.088217 -0.066035 0.028969
vn -0.2418 0.8467 0.4741
vn -0.2386 0.8361 -0.4940
vn -0.6837 0.4229 -0.5947
vn -0.6981 0.4316 0.5713
vn 0.0746 -0.0440 0.9962
vn 0.0764 0.0587 0.9954
vn 0.1752 0.1069 0.9787
vn 0.1752 -0.1069 0.9787
vn -0.2386 -0.8361 -0.4940
vn -0.2321 -0.8188 0.5251
vn -0.6840 -0.4281 0.5907
vn -0.6837 -0.4229 -0.5947
vn 0.6837 -0.4229 -0.5947
vn 0.6837 0.4229 -0.5947
vn 0.7034 0.4357 0.5616
vn 0.6823 -0.4291 0.5919
vn 0.0341 0.1320 0.9907
vn -0.0614 -0.0274 0.9977
vn -0.0268 -0.0714 0.9971
vn 0.2315 -0.8164 0.5291
vn 0.2386 -0.8361 -0.4940
vn 0.2386 0.8361 -0.4940
vn 0.2421 0.8494 0.4690
vn 0.0226 -0.0715 0.9972
vn -0.0351 0.1310 0.9908
vn 0.0303 -0.1077 0.9937
vn -0.0315 -0.1076 0.9937
vn 0.0261 0.0889 0.9957
vn -0.0253 0.0865 0.9959
vn -0.0781 0.0577 0.9953
vn 0.0637 -0.0295 0.9975
vn -0.0643 0.0344 0.9973
vn -0.0763 -0.0440 0.9961
vn 0.0685 0.0367 0.9970
vn -0.0715 0.2543 0.9645
vn -0.1752 0.1069 0.9787
vn -0.1752 -0.1069 0.9787
vn -0.0715 -0.2543 0.9645
vn 0.0715 -0.2543 0.9645
vn 0.0715 0.2543 0.9645
vn -0.0810 -0.0494 -0.9955
vn -0.0335 -0.1189 -0.9923
vn -0.1074 -0.3902 -0.9144
vn -0.2746 -0.1638 -0.9475
vn -0.2060 -0.1224 0.9709
vn -0.0758 -0.2744 0.9586
vn 0.0810 0.0494 -0.9955
vn 0.0335 0.1189 -0.9923
vn 0.1074 0.3902 -0.9144
vn 0.2746 0.1638 -0.9475
vn 0.2147 0.1309 0.9679
vn 0.0796 0.2941 0.9524
vn -0.0788 0.2889 0.9541
vn -0.2065 0.1240 0.9706
vn -0.0335 0.1189 -0.9923
vn -0.0810 0.0494 -0.9955
vn -0.2746 0.1638 -0.9475
vn -0.1074 0.3902 -0.9144
vn 0.0747 -0.2733 0.9590
vn 0.2059 -0.1250 0.9705
vn 0.0335 -0.1189 -0.9923
vn 0.0810 -0.0494 -0.9955
vn 0.2746 -0.1638 -0.9475
vn 0.1074 -0.3902 -0.9144
vn -0.1128 0.2074 -0.9717
vn -0.3572 0.6624 0.6585
vn -0.0000 0.7736 0.6337
vn -0.0000 0.2725 -0.9622
vn 0.1613 0.0972 -0.9821
vn 0.6096 0.3698 0.7012
vn 0.6952 -0.0000 0.7189
vn 0.1722 -0.0000 -0.9851
vn 0.6096 -0.3698 0.7012
vn 0.1613 -0.0972 -0.9821
vn 0.3572 -0.6624 0.6585
vn 0.1128 -0.2074 -0.9717
vn -0.0000 -0.7736 0.6337
vn -0.0000 -0.2725 -0.9622
vn -0.3572 -0.6624 0.6585
vn -0.1128 -0.2074 -0.9717
vn -0.1722 -0.0000 -0.9851
vn -0.6952 -0.0000 0.7189
vn -0.6096 0.3698 0.7012
vn -0.1613 0.0972 -0.9821
vn 0.3572 0.6624 0.6585
vn 0.1128 0.2074 -0.9717
vn -0.1613 -0.0972 -0.9821
vn -0.0000 0.1870 0.9824
vn 0.0797 0.1437 0.9864
vn 0.1157 0.0685 0.9909
vn 0.1243 -0.0000 0.9923
vn 0.1157 -0.0685 0.9909
vn 0.0797 -0.1437 0.9864
vn -0.6096 -0.3698 0.7012
vn -0.0797 -0.1437 0.9864
vn -0.1157 -0.0685 0.9909
vn -0.1243 -0.0000 0.9923
vn -0.1157 0.0685 0.9909
vn -0.0797 0.1437 0.9864
vn -0.0000 -0.1870 0.9824
vt 0.902140 0.385466
vt 0.900492 0.387369
vt 0.900391 0.132064
vt 0.902146 0.133857
vt 0.634244 0.384028
vt 0.632562 0.382247
vt 0.630965 0.129202
vt 0.632648 0.127292
vt 0.758108 0.512992
vt 0.703795 0.187408
vt 0.756764 0.511648
vt 0.702657 0.188535
vt 0.559510 0.733267
vt 0.829926 0.327424
vt 0.560854 0.734611
vt 0.831057 0.326313
vt 0.560853 0.511648
vt 0.696361 0.316212
vt 0.559510 0.512992
vt 0.697402 0.317306
vt 0.756764 0.734611
vt 0.838200 0.200782
vt 0.758108 0.733267
vt 0.837160 0.199744
vt 0.352022 0.352338
vt 0.379026 0.367225
vt 0.361374 0.356895
vt 0.342867 0.360233
vt 0.358576 0.388695
vt 0.347017 0.369932
vt 0.181436 0.352642
vt 0.166474 0.379540
vt 0.176838 0.361964
vt 0.173553 0.343421
vt 0.145121 0.359116
vt 0.163848 0.347579
vt 0.350488 0.181407
vt 0.365450 0.154509
vt 0.355085 0.172086
vt 0.358370 0.190629
vt 0.386802 0.174934
vt 0.368076 0.186471
vt 0.179902 0.181712
vt 0.152898 0.166825
vt 0.170549 0.177154
vt 0.189057 0.173816
vt 0.173348 0.145355
vt 0.184906 0.164117
vt 0.027587 0.062750
vt 0.597013 0.027587
vt 0.615663 0.074379
vt 0.612957 0.060621
vt 0.602185 0.093241
vt 0.063915 0.027587
vt 0.559510 0.062620
vt 0.591190 0.084580
vt 0.934117 0.456475
vt 0.504337 0.471300
vt 0.912401 0.411755
vt 0.916982 0.424234
vt 0.928509 0.394985
vt 0.972413 0.421676
vt 0.468008 0.506463
vt 0.938698 0.400944
vt 0.469387 0.029813
vt 0.564646 0.414162
vt 0.607971 0.391146
vt 0.596583 0.397703
vt 0.623515 0.407204
vt 0.504337 0.066020
vt 0.597816 0.450478
vt 0.618551 0.420214
vt 0.062536 0.504236
vt 0.972413 0.070018
vt 0.931237 0.098821
vt 0.941458 0.090690
vt 0.915575 0.080439
vt 0.027587 0.468029
vt 0.937170 0.036188
vt 0.920154 0.066277
vt 0.027587 0.590906
vt 0.222192 0.643062
vt 0.027587 0.605541
vt 0.241087 0.632153
vt 0.027587 0.649447
vt 0.241087 0.572545
vt 0.027587 0.707987
vt 0.170570 0.591440
vt 0.088622 0.561636
vt 0.088622 0.737258
vt 0.115397 0.574317
vt 0.115397 0.577884
vt 0.327902 0.626293
vt 0.088622 0.576271
vt 0.088622 0.590906
vt 0.088622 0.605541
vt 0.088622 0.620177
vt 0.115397 0.677612
vt 0.115397 0.679679
vt 0.333327 0.561636
vt 0.115397 0.721010
vt 0.115397 0.724577
vt 0.307170 0.605561
vt 0.027587 0.737258
vt 0.027587 0.561636
vt 0.181479 0.632153
vt 0.027587 0.576271
vt 0.200374 0.643062
vt 0.027587 0.620177
vt 0.251996 0.613258
vt 0.027587 0.634812
vt 0.251996 0.591440
vt 0.222192 0.561636
vt 0.027587 0.664082
vt 0.200374 0.561636
vt 0.027587 0.678717
vt 0.181479 0.572545
vt 0.027587 0.693352
vt 0.027587 0.722623
vt 0.170570 0.613258
vt 0.115397 0.564136
vt 0.115397 0.734758
vt 0.314758 0.618704
vt 0.115397 0.589801
vt 0.115397 0.591868
vt 0.345669 0.626293
vt 0.115397 0.604713
vt 0.115397 0.606370
vt 0.362252 0.616719
vt 0.115397 0.619215
vt 0.115397 0.621282
vt 0.371827 0.600135
vt 0.115397 0.633199
vt 0.371827 0.582369
vt 0.115397 0.636766
vt 0.088622 0.634812
vt 0.364238 0.569225
vt 0.115397 0.646947
vt 0.115397 0.651947
vt 0.088622 0.649447
vt 0.115397 0.665695
vt 0.351094 0.561636
vt 0.115397 0.662127
vt 0.088622 0.664082
vt 0.088622 0.678717
vt 0.115397 0.692524
vt 0.316744 0.571211
vt 0.115397 0.694181
vt 0.088622 0.693352
vt 0.115397 0.709092
vt 0.307169 0.587794
vt 0.115397 0.707025
vt 0.088622 0.707987
vt 0.088622 0.722623
vt 0.027587 0.737258
vt 0.027587 0.561636
vt 0.181479 0.632153
vt 0.027587 0.576271
vt 0.200374 0.643062
vt 0.027587 0.590906
vt 0.222192 0.643062
vt 0.241087 0.632153
vt 0.027587 0.605541
vt 0.251996 0.613258
vt 0.027587 0.620177
vt 0.027587 0.634812
vt 0.251996 0.591440
vt 0.027587 0.649447
vt 0.241087 0.572545
vt 0.027587 0.664082
vt 0.222192 0.561636
vt 0.027587 0.678717
vt 0.200374 0.561636
vt 0.027587 0.693352
vt 0.181479 0.572545
vt 0.027587 0.707987
vt 0.170570 0.591440
vt 0.027587 0.722623
vt 0.170570 0.613258
vt 0.115397 0.564136
vt 0.115397 0.734758
vt 0.314758 0.618704
vt 0.088622 0.561636
vt 0.088622 0.737258
vt 0.115397 0.574317
vt 0.115397 0.577884
vt 0.327902 0.626293
vt 0.088622 0.576271
vt 0.115397 0.589801
vt 0.115397 0.591868
vt 0.345669 0.626293
vt 0.088622 0.590906
vt 0.115397 0.604713
vt 0.115397 0.606370
vt 0.362252 0.616719
vt 0.088622 0.605541
vt 0.115397 0.619215
vt 0.115397 0.621282
vt 0.371827 0.600135
vt 0.088622 0.620177
vt 0.115397 0.633199
vt 0.115397 0.636766
vt 0.371827 0.582369
vt 0.088622 0.634812
vt 0.115397 0.646947
vt 0.115397 0.651947
vt 0.364238 0.569225
vt 0.088622 0.649447
vt 0.115397 0.662127
vt 0.115397 0.665695
vt 0.351094 0.561636
vt 0.088622 0.664082
vt 0.115397 0.677612
vt 0.115397 0.679679
vt 0.333327 0.561636
vt 0.088622 0.678717
vt 0.115397 0.692524
vt 0.115397 0.694181
vt 0.316744 0.571211
vt 0.088622 0.693352
vt 0.115397 0.707025
vt 0.115397 0.709092
vt 0.307169 0.587794
vt 0.088622 0.707987
vt 0.115397 0.721010
vt 0.115397 0.724577
vt 0.307170 0.605561
vt 0.088622 0.722623
s 1
usemtl Material.012
f 57/70/1 33/41/2 30/38/3 53/65/4
f 6/6/5 7/7/6 10/12/7 13/18/8
f 36/44/9 41/49/10 45/54/11 39/47/12
f 24/32/13 21/29/14 51/63/15 59/73/16
f 8/8/17 7/7/6 44/53/18 42/51/19
f 63/78/20 27/35/21 24/32/13 59/73/16
f 18/26/22 33/41/2 57/70/1 47/58/23
f 45/54/11 53/65/4 30/38/3 39/47/12
f 36/44/9 27/35/21 63/78/20 41/49/10
f 8/8/17 42/51/19 62/77/24 3/3/25
f 5/5/26 2/2/27 48/59/28 56/69/29
f 4/4/30 3/3/25 62/77/24 60/75/31
f 6/6/5 5/5/26 56/69/29 54/67/32
f 1/1/33 4/4/30 60/75/31 50/61/34
f 2/2/27 1/1/33 50/61/34 48/59/28
f 16/23/35 15/21/36 12/15/37 11/13/38 14/19/39 13/17/8 10/11/7 9/9/40
f 2/2/27 5/5/26 14/20/39 11/14/38
f 3/3/25 4/4/30 15/22/36 16/24/35
f 1/1/33 2/2/27 11/14/38 12/16/37
f 8/8/17 3/3/25 16/24/35 9/10/40
f 4/4/30 1/1/33 12/16/37 15/22/36
f 5/5/26 6/6/5 13/18/8 14/20/39
f 7/7/6 8/8/17 9/10/40 10/12/7
f 7/7/6 6/6/5 54/67/32 44/53/18
f 38/46/41 35/43/42 37/45/43 40/48/44
f 40/48/44 37/45/43 36/44/9 39/47/12
f 42/51/19 44/53/18 46/56/45 43/52/46
f 43/52/46 46/56/45 45/55/11 41/50/10
f 20/28/47 17/25/48 19/27/49 22/30/50
f 22/30/50 19/27/49 18/26/22 21/29/14
f 48/59/28 50/61/34 52/64/51 49/60/52
f 49/60/52 52/64/51 51/62/15 47/57/23
f 54/67/32 56/69/29 58/72/53 55/68/54
f 55/68/54 58/72/53 57/71/1 53/66/4
f 32/40/55 29/37/56 31/39/57 34/42/58
f 34/42/58 31/39/57 30/38/3 33/41/2
f 60/75/31 62/77/24 64/80/59 61/76/60
f 61/76/60 64/80/59 63/79/20 59/74/16
f 26/34/61 23/31/62 25/33/63 28/36/64
f 28/36/64 25/33/63 24/32/13 27/35/21
f 27/35/21 36/44/9 37/45/43 28/36/64
f 28/36/64 37/45/43 35/43/42 26/34/61
f 39/47/12 30/38/3 31/39/57 40/48/44
f 40/48/44 31/39/57 29/37/56 38/46/41
f 33/41/2 18/26/22 19/27/49 34/42/58
f 34/42/58 19/27/49 17/25/48 32/40/55
f 21/29/14 24/32/13 25/33/63 22/30/50
f 22/30/50 25/33/63 23/31/62 20/28/47
f 50/61/34 60/75/31 61/76/60 52/64/51
f 52/64/51 61/76/60 59/74/16 51/62/15
f 56/69/29 48/59/28 49/60/52 58/72/53
f 58/72/53 49/60/52 47/57/23 57/71/1
f 62/77/24 42/51/19 43/52/46 64/80/59
f 64/80/59 43/52/46 41/50/10 63/79/20
f 53/66/4 45/55/11 46/56/45 55/68/54
f 55/68/54 46/56/45 44/53/18 54/67/32
f 35/43/42 38/46/41 29/37/56 32/40/55 17/25/48 20/28/47 23/31/62 26/34/61
f 18/26/22 47/58/23 51/63/15 21/29/14
f 84/119/65 100/154/66 69/90/67 77/104/68
f 65/81/69 72/95/70 73/96/71 66/83/72
f 66/83/72 73/96/71 74/97/73 79/109/74
f 79/109/74 74/97/73 90/136/75 80/111/76
f 80/111/76 90/136/75 92/140/77 67/85/78
f 67/85/78 92/140/77 94/144/79 81/114/80
f 83/118/81 97/149/82 99/153/83 68/87/84
f 68/87/84 99/153/83 100/154/66 84/119/65
f 77/105/68 69/89/67 71/94/85 78/107/86
f 78/107/86 71/94/85 72/95/70 65/81/69
f 77/106/68 78/108/86 65/82/69 66/84/72 79/110/74 80/112/76 67/86/78 81/113/80 82/115/87 83/117/81 68/88/84 84/120/65
f 71/94/85 69/89/67 85/121/88 70/91/89
f 72/95/70 71/94/85 70/92/89 86/124/90
f 73/96/71 72/95/70 86/125/90 87/127/91
f 74/97/73 73/96/71 87/128/91 88/130/92
f 90/136/75 74/97/73 88/131/92 89/133/93
f 95/145/94 94/144/79 93/141/95 75/98/96
f 97/149/82 95/145/94 75/99/96 96/146/97
f 100/154/66 99/153/83 98/150/98 76/101/99
f 69/90/67 100/154/66 76/102/99 85/122/88
f 70/93/89 85/123/88 76/103/99 98/151/98 96/147/97 75/100/96 93/142/95 91/137/100 89/134/93 88/132/92 87/129/91 86/126/90
f 81/114/80 94/144/79 95/145/94 82/116/87
f 82/116/87 95/145/94 97/149/82 83/118/81
f 92/140/77 90/136/75 89/135/93 91/138/100
f 94/144/79 92/140/77 91/139/100 93/143/95
f 99/153/83 97/149/82 96/148/97 98/152/98
f 112/178/65 136/228/66 114/184/67 101/155/68
f 103/160/69 118/192/70 120/196/71 104/163/72
f 105/165/74 122/200/73 124/204/75 106/166/76
f 106/166/76 124/204/75 126/208/77 107/168/78
f 107/168/78 126/208/77 128/212/79 108/170/80
f 108/170/80 128/212/79 130/216/94 109/172/87
f 109/172/87 130/216/94 132/220/82 110/174/81
f 110/174/81 132/220/82 134/224/83 111/176/84
f 111/176/84 134/224/83 136/228/66 112/178/65
f 101/156/68 114/183/67 116/188/85 102/158/86
f 102/158/86 116/188/85 118/192/70 103/160/69
f 101/157/68 102/159/86 103/161/69 104/162/72 105/164/74 106/167/76 107/169/78 108/171/80 109/173/87 110/175/81 111/177/84 112/179/65
f 116/188/85 114/183/67 113/180/88 115/185/89
f 118/192/70 116/188/85 115/186/89 117/189/90
f 120/196/71 118/192/70 117/190/90 119/193/91
f 122/200/73 120/196/71 119/194/91 121/197/92
f 124/204/75 122/200/73 121/198/92 123/201/93
f 126/208/77 124/204/75 123/202/93 125/205/100
f 128/212/79 126/208/77 125/206/100 127/209/95
f 130/216/94 128/212/79 127/210/95 129/213/96
f 132/220/82 130/216/94 129/214/96 131/217/97
f 134/224/83 132/220/82 131/218/97 133/221/98
f 136/228/66 134/224/83 133/222/98 135/225/99
f 114/184/67 136/228/66 135/226/99 113/181/88
f 115/187/89 113/182/88 135/227/99 133/223/98 131/219/97 129/215/96 127/211/95 125/207/100 123/203/93 121/199/92 119/195/91 117/191/90
f 105/165/74 104/163/72 120/196/71 122/200/73
